<?xml version="1.0" encoding="utf-8"?>
<!-- Generator: Adobe Illustrator 28.3.0, SVG Export Plug-In . SVG Version: 6.00 Build 0)  -->
<svg version="1.1" id="Layer_1" xmlns="http://www.w3.org/2000/svg" xmlns:xlink="http://www.w3.org/1999/xlink" x="0px" y="0px"
	 viewBox="0 0 400 400" style="enable-background:new 0 0 400 400;" xml:space="preserve">
<style type="text/css">
	.st0{fill:#CD2027;}
	.st1{fill:#C42126;}
</style>
<path class="st0" d="M19.57,256.68c-4.28,0-8.36,0-12.58,0c0-0.63,0-1.19,0-1.75c0-21.08,0-42.17-0.01-63.25
	c0-1.32-0.05-2.65-0.24-3.95c-0.49-3.39-1.61-4.58-4.97-5.17c-0.88-0.16-1.07-0.5-1.04-1.28c0.05-1.09,0.01-2.19,0.01-3.44
	c0.62,0,1.09,0,1.56,0c9.41,0,18.82-0.02,28.22,0.01c5.48,0.01,10.86,0.68,15.95,2.9c7.49,3.27,11.93,9.04,12.47,17.41
	c0.29,4.48-0.3,8.8-2.3,12.88c-2.31,4.72-5.89,8.18-10.47,10.6c-5.83,3.08-12.11,4.29-18.64,4.39c-2.62,0.04-5.25,0.01-7.99,0.01
	C19.57,236.38,19.57,246.48,19.57,256.68z M19.63,219.8c4.2-0.27,8.26-0.22,12.22-0.86c6.01-0.98,10.35-4.37,12.22-10.42
	c1.31-4.23,1.32-8.56,0.25-12.81c-1.04-4.13-3.53-7.17-7.45-9.03c-5.52-2.61-11.38-1.99-17.24-2.09
	C19.63,196.29,19.63,207.84,19.63,219.8z"/>
<path class="st0" d="M134.21,211.68c2.24-2.03,4.05-3.99,6.16-5.52c5.3-3.87,11.27-5.43,17.78-4.28
	c6.36,1.12,10.52,5.82,11.54,12.88c0.21,1.48,0.33,2.99,0.34,4.48c0.03,11.93,0.01,23.87,0.01,35.8c0,0.52,0,1.04,0,1.63
	c-3.97,0-7.82,0-11.87,0c0-0.51,0-1.02,0-1.53c-0.01-11.31,0.02-22.63-0.09-33.94c-0.02-1.9-0.38-3.89-1.01-5.68
	c-1.24-3.51-4.27-5.03-8.53-4.6c-4.95,0.49-9.25,2.53-13.15,5.56c-0.73,0.56-1,1.21-1,2.14c0.03,12.15,0.02,24.31,0.02,36.46
	c0,0.52,0,1.03,0,1.61c-4,0-7.85,0-11.92,0c0-0.49,0-1,0-1.5c0-13.44,0-26.87,0-40.31c0-0.44,0.01-0.88-0.01-1.33
	c-0.11-3.33-1.6-4.9-4.9-5.21c-0.43-0.04-0.86-0.09-1.22-0.12c-0.07-0.15-0.1-0.18-0.1-0.23c-0.3-3.04-0.3-3.03,2.65-3.57
	c4.83-0.88,9.65-1.77,14.48-2.65c1.56-0.28,2.24,0.55,1.96,2.14C134.94,206.42,134.62,208.95,134.21,211.68z"/>
<path class="st0" d="M179.14,208.22c-0.06-0.18-0.11-0.26-0.11-0.35c-0.17-2.93-0.17-2.93,2.69-3.44c4.83-0.88,9.66-1.77,14.49-2.64
	c1.6-0.29,2.26,0.57,1.95,2.28c-0.44,2.46-0.74,4.94-1.11,7.42c0.13,0.05,0.25,0.1,0.38,0.15c0.3-0.35,0.59-0.7,0.89-1.05
	c5.78-6.48,12.84-9.85,21.61-8.83c6.57,0.76,11.17,5.19,12.31,11.75c0.4,2.29,0.63,4.64,0.64,6.97c0.06,11.72,0.03,23.43,0.03,35.15
	c0,0.31-0.03,0.61-0.05,1.03c-3.91,0-7.79,0-11.9,0c0-0.46,0-0.97,0-1.47c-0.01-11.49,0.02-22.99-0.1-34.48
	c-0.02-1.89-0.44-3.89-1.17-5.64c-1.41-3.35-4.51-4.61-8.69-4.1c-4.71,0.57-8.8,2.51-12.57,5.32c-0.89,0.66-1.26,1.39-1.25,2.55
	c0.04,12.07,0.03,24.14,0.03,36.21c0,0.52,0,1.04,0,1.64c-3.96,0-7.81,0-11.87,0c0-0.49,0-1,0-1.51c0-13.17,0-26.35,0-39.52
	c0-0.71-0.01-1.41-0.04-2.12c-0.14-3.36-1.6-4.89-4.91-5.18C179.96,208.31,179.53,208.26,179.14,208.22z"/>
<path class="st0" d="M74.34,230.2c0.26,4.56,1.04,8.88,3.24,12.8c3.29,5.87,8.55,8.26,15.04,8.14c5.04-0.09,9.7-1.42,13.53-5.15
	c0.8,0.89,1.54,1.73,2.35,2.63c-1.56,2.17-3.47,3.93-5.84,5.01c-9.08,4.16-18.26,4.02-27.24-0.13c-7.53-3.48-11.77-9.77-13.38-17.85
	c-1.49-7.49-0.87-14.8,2.68-21.63c4.85-9.31,12.71-13.81,23.09-13.79c6.52,0.01,12.19,2.29,16.73,7.09
	c3.09,3.26,4.77,7.25,5.51,11.64c0.29,1.71,0.3,3.47,0.33,5.21c0.02,0.82-0.6,1.14-1.39,1.25c-9.82,1.33-19.64,2.68-29.45,4.03
	C77.81,229.68,76.09,229.95,74.34,230.2z M74.19,225.09c2.04-0.26,3.9-0.5,5.76-0.75c5.6-0.76,11.19-1.55,16.79-2.29
	c0.75-0.1,0.98-0.32,0.86-1.08c-0.34-2.21-0.49-4.47-0.96-6.65c-0.63-2.93-1.79-5.66-4.36-7.45c-4.01-2.8-10.13-1.6-13.3,2.5
	C75.46,213.96,74.59,219.34,74.19,225.09z"/>
<path class="st0" d="M231.47,322.73c-3.31,0-6.49,0-9.6,0c0.82,1.37,1.86,2.79,2.56,4.36c4.23,9.46,1.12,22.45-10.55,27.24
	c-5.1,2.09-10.38,2.45-15.76,1.62c-1.38-0.21-2.26-0.08-2.74,1.35c-0.45,1.33-0.11,2.74,1.14,3.47c0.97,0.57,2.04,1.04,3.12,1.35
	c4.77,1.36,9.57,2.6,14.34,3.97c4.8,1.38,9.55,2.88,13.74,5.77c5.19,3.58,6.06,9.21,3.87,14.5c-2.18,5.27-6.46,8.28-11.55,10.11
	c-10.53,3.78-21.2,3.99-31.88,0.53c-2.96-0.96-5.59-2.56-7.63-4.96c-3.83-4.49-3.61-11.58,0.41-16.01c1.94-2.14,4.14-3.93,6.69-5.28
	c0.38-0.2,0.72-0.46,0.83-0.54c-1.17-1.52-2.6-2.85-3.37-4.5c-1.41-3-0.4-5.8,1.64-8.18c1.16-1.36,2.56-2.5,3.78-3.68
	c-1.53-1.19-3.22-2.29-4.65-3.66c-5.01-4.8-6.43-10.84-5.25-17.46c1.5-8.38,6.9-13.29,14.78-15.66c4.57-1.37,9.24-1.4,13.94-0.68
	c4.15,0.64,8.21-0.18,12.24-1.08c1.87-0.42,3.69-1.08,5.52-1.68c1.66-0.54,2.5-0.08,2.86,1.66
	C230.46,317.76,230.95,320.21,231.47,322.73z M213.82,336.88c0.07-3.57-0.36-7.07-2.15-10.21c-2.05-3.59-5.02-5.9-9.38-5.62
	c-4.37,0.28-7.14,2.85-8.44,6.83c-0.77,2.34-1.07,4.9-1.21,7.38c-0.22,4.16,0.53,8.16,3,11.66c4,5.66,12.17,6.21,16.11-0.34
	C213.54,343.63,213.88,340.28,213.82,336.88z M203.67,394.17c4.17-0.02,8.06-0.83,11.56-2.94c4.15-2.5,5.78-8.73,1-12
	c-0.93-0.64-1.96-1.24-3.03-1.56c-5.8-1.74-11.62-3.4-17.44-5.04c-0.4-0.11-0.99,0-1.33,0.24c-2.39,1.67-4.35,3.72-5.11,6.66
	c-1.25,4.87,0,9.93,5.07,12.44C197.39,393.44,200.51,394.05,203.67,394.17z"/>
<path class="st0" d="M71.31,295.2c-0.43,3.15-0.83,6.16-1.28,9.17c-0.08,0.51-0.34,1.37-0.61,1.41c-0.51,0.08-1.14-0.24-1.63-0.55
	c-1.96-1.24-3.79-2.71-5.82-3.8c-5.56-2.99-11.6-3.94-17.84-3.74c-5.79,0.19-11.29,1.39-16.2,4.67c-3.78,2.52-6.63,5.87-8.71,9.87
	c-3.95,7.63-4.6,15.81-3.75,24.2c0.45,4.47,1.63,8.72,3.73,12.71c3.14,5.97,7.86,10.22,14.02,12.8c6.27,2.62,12.85,3.09,19.53,2.38
	c2.39-0.25,4.74-0.81,7.11-1.23c0.67-0.12,1.05-0.38,1.05-1.2c-0.03-7.78-0.02-15.56-0.03-23.34c0-0.13-0.04-0.26-0.1-0.58
	c-6.58,0-13.18,0-19.97,0c0.38-2.38,0.73-4.54,1.09-6.76c10.52,0,20.96,0,31.55,0c0,0.53,0,1.01,0,1.48c0,9.55-0.01,19.1,0.02,28.65
	c0,0.95-0.31,1.51-1.05,2.06c-6.48,4.78-13.76,7.52-21.69,8.47c-7.76,0.93-15.45,0.49-22.89-2.09
	c-10.99-3.82-19.29-10.85-23.77-21.74c-4.54-11.05-4.45-22.3,0.27-33.33c4.73-11.06,13.36-17.74,24.59-21.26
	c6.53-2.05,13.25-2.56,20.04-2.25c7.27,0.33,14.4,1.54,21.36,3.68C70.62,294.95,70.9,295.06,71.31,295.2z"/>
<path class="st0" d="M236.13,342.11c-0.03-6.36,1.69-12.53,5.72-17.87c4.24-5.61,10-8.84,16.86-10.11
	c5.54-1.02,11.04-0.8,16.35,1.15c5.93,2.18,10.67,5.92,13.62,11.59c4.94,9.53,4.61,19.22-0.02,28.71
	c-2.47,5.07-6.47,8.8-11.62,11.23c-7.76,3.65-15.75,4.15-23.79,1.33c-7.54-2.64-12.73-7.87-15.48-15.48
	C236.57,349.35,236.13,345.92,236.13,342.11z M279.32,342.94c-0.14-1.8-0.2-3.62-0.43-5.41c-0.74-5.85-2.52-11.23-7-15.4
	c-3.59-3.34-9.49-4.26-13.84-2.01c-3.78,1.95-5.88,5.29-7.31,9.13c-1.9,5.08-1.98,10.38-1.52,15.68c0.4,4.56,1.56,8.93,4.08,12.83
	c2.44,3.78,5.77,6.25,10.31,6.74c5.81,0.62,10.01-2.53,12.65-7.47C278.61,352.64,279.25,347.85,279.32,342.94z"/>
<path class="st0" d="M374.21,356.46c0.75-1.7,1.48-3.29,2.15-4.9c2.69-6.36,5.4-12.71,8.03-19.1c1.16-2.82,2.15-5.71,1.77-8.85
	c-0.21-1.67-1.1-3.06-2.65-3.47c-1.67-0.45-1.89-1.38-1.73-2.78c0.04-0.34,0.01-0.7,0.01-1.13c0.41-0.04,0.74-0.1,1.07-0.1
	c4.97-0.01,9.93,0.01,14.9-0.02c0.76,0,1.28,0.16,1.49,0.93c0.2,0.72,0.56,1.31-0.21,2.1c-2.69,2.73-4.35,6.16-5.87,9.62
	c-3.76,8.58-7.47,17.19-11.18,25.8c-3.29,7.64-6.51,15.31-9.84,22.93c-2.43,5.55-5.4,10.77-9.82,15.01
	c-2.62,2.52-5.59,4.53-9.12,5.89c-1.1-2.1-2.21-4.22-3.32-6.33c1.85-0.92,3.64-1.66,5.28-2.63c5.36-3.19,8.62-8.13,11.01-13.74
	c0.29-0.69,0.46-1.46,0.88-2.06c1.53-2.23,0.86-4.28-0.12-6.52c-2.85-6.53-5.52-13.13-8.28-19.7c-2.69-6.41-5.37-12.81-8.09-19.21
	c-0.93-2.18-1.86-4.37-2.99-6.44c-0.42-0.77-1.32-1.47-2.15-1.79c-0.96-0.37-1.34-0.79-1.21-1.78c0.07-0.61,0.01-1.23,0.01-1.96
	c6.54,0,13.02,0,19.61,0c0.16,0.45,0.41,0.96,0.51,1.5c0.06,0.32-0.02,0.82-0.23,0.99c-1.95,1.61-2.25,3.84-1.82,6.02
	c0.52,2.65,1.38,5.27,2.35,7.79c2.99,7.79,6.11,15.54,9.18,23.3C373.9,356.01,374.02,356.15,374.21,356.46z"/>
<path class="st0" d="M136.38,343.62c0.44,5.94,1.6,11.47,5.66,15.97c2.99,3.31,6.86,4.65,11.15,4.84c5.43,0.24,10.45-1,14.63-4.75
	c0.12-0.11,0.28-0.19,0.45-0.31c0.75,0.85,1.47,1.68,2.25,2.57c-2.18,3.09-5.14,5.13-8.67,6.26c-8.46,2.7-16.84,2.38-24.83-1.56
	c-7.1-3.5-11.24-9.53-12.89-17.22c-1.32-6.14-0.96-12.24,0.96-18.27c3.43-10.78,13.54-17.97,24.79-17.63
	c6.38,0.19,11.93,2.25,16.45,6.83c3.63,3.69,5.34,8.32,6,13.37c0.16,1.25,0.13,2.53,0.1,3.8c-0.02,0.76-0.57,1.09-1.31,1.19
	c-5.3,0.72-10.59,1.45-15.89,2.18c-5.95,0.82-11.89,1.63-17.84,2.46C137.11,343.38,136.82,343.5,136.38,343.62z M136.25,338.42
	c7.91-1.06,15.66-2.1,23.44-3.15c-0.12-3.46-0.48-6.74-1.64-9.87c-1.03-2.77-2.6-5.16-5.55-6.14c-4.15-1.37-7.84-0.4-10.8,2.79
	C137.48,326.61,136.71,332.37,136.25,338.42z"/>
<path class="st0" d="M319.44,313.98c1.57,1.86,0.19,3.6,0.15,5.34c-0.07,2.81-0.33,5.62-0.4,8.48c4.84-8.66,10.86-15.22,22.23-13.53
	c-0.95,3.87-1.86,7.56-2.79,11.34c-2.71-0.79-5.41-0.9-8.06-0.12c-4.94,1.45-8.19,4.88-10.51,9.35c-0.71,1.37-0.92,2.78-0.91,4.32
	c0.05,9.41,0.02,18.82,0.02,28.23c0,0.52,0,1.05,0,1.66c-3.97,0-7.85,0-11.87,0c0-0.56,0-1.08,0-1.6c0-13.48,0.02-26.95-0.03-40.43
	c0-1.33-0.22-2.74-0.69-3.98c-0.69-1.8-2.47-2.2-4.15-2.27c-1.24-0.05-1.53-0.52-1.38-1.59c0.01-0.09,0.01-0.18,0-0.26
	c-0.18-1.19,0.17-1.72,1.52-1.94c5.44-0.89,10.86-1.97,16.29-2.97C319.06,313.98,319.28,313.99,319.44,313.98z"/>
<path class="st0" d="M100.59,369.96c-4.03,0-7.89,0-11.87,0c0-0.57,0-1.09,0-1.61c0-13.17,0-26.34,0-39.5
	c0-0.71-0.01-1.41-0.04-2.12c-0.14-3.2-1.67-4.81-4.85-5.11c-0.43-0.04-0.85-0.06-1.21-0.08c-0.08-0.16-0.11-0.19-0.12-0.23
	c-0.32-3.07-0.32-3.07,2.73-3.62c4.78-0.87,9.57-1.75,14.35-2.62c1.57-0.29,2.17,0.49,1.99,2.11c-0.4,3.67-0.66,7.36-0.97,11.04
	c-0.01,0.12,0.05,0.24,0.1,0.51c4.76-8.81,10.83-15.29,22.11-13.55c-0.95,3.84-1.86,7.5-2.73,11.03c-1.88-0.09-3.67-0.3-5.44-0.23
	c-4.29,0.19-7.64,2.29-10.37,5.5c-0.68,0.8-1.31,1.65-1.87,2.54c-1.15,1.84-1.88,3.74-1.85,6.04c0.12,9.45,0.05,18.91,0.05,28.37
	C100.59,368.9,100.59,369.38,100.59,369.96z"/>
<g>
	<path class="st1" d="M159.67,41.98l-19.62,5.57c-7.22-4.28-19.43-8.44-35.35-2.51c2.71,4.87,4.46,7.44,5.55,12.58
		c7.44-7.85,10.42-8.39,15.02-8.39c4.6,0,9.74,4.46,9.2,10.42c-0.25,2.8-5.99,28.08-7.7,37.8c-3.65,3.5-8.14,6.13-13.37,6.13
		c-11.28,0-10.99-9.11-10.99-14.75c0-5.64,2.46-19.96,1.88-23.72c-0.58-3.76-2.75-22.92-23.72-22.92c-8.45,0-19.31,6.38-25.45,10.83
		c-1.59-5.42-6.54-9.27-12.41-10.27c0,0-2.62-0.54-5.59-0.54c-6.94,0-20.25,6.36-20.25,6.36l-1.16,6.56c0,0,3.86-2.12,9.64-2.12
		c5.79,0,6.94,4.63,5.98,9.45c-0.8,4-11.8,52.42-15.54,69.23c-0.74,3.32-3.51,5.79-6.89,6.16l-6.69,0.73l-0.58,4.82h49.95l0.77-4.82
		l-9.96-0.73c-2.78-0.57-3.61-3.4-2.96-6.16l4.68-21.4c10.6,7.53,26.93,4.65,33.85,1.26c-1.88-1.16-3.91-3.76-6.51-11.86
		c-4.51,5.22-7.04,9.54-13.74,9.11c-9.19,0-11.06-7.14-10.17-13.79l7.81-34.79c0.1-0.43,0.17-0.86,0.22-1.29
		c4.49-4.07,5.31-6.11,13.56-6.11c9.84,0,10.7,11.28,9.98,18.95C78.39,79.43,69.86,114,101.68,114c10.68,0,18.28-3.81,23.66-8.88
		c-3.31,16.48-8.4,31.36-22.67,33.41c-2.98-8.25-10.01-18.53-18.81-18.53c-8.79,0-11.82,8.04-10.15,12.45
		c2.01,5.31,10.01,10.96,23.13,10.96c13.12,0,35.72,2.03,48.98-31.12c7.04-21.65,14.15-60.17,15.33-68.94
		C161.28,42.49,160.51,41.79,159.67,41.98z"/>
	<circle class="st1" cx="78.39" cy="17.39" r="17.93"/>
	<circle class="st1" cx="129.33" cy="18.95" r="17.93"/>
</g>
</svg>
