<?xml version="1.0" encoding="utf-8"?>
<!-- Generator: Adobe Illustrator 28.3.0, SVG Export Plug-In . SVG Version: 6.00 Build 0)  -->
<svg version="1.1" id="Layer_1" xmlns="http://www.w3.org/2000/svg" xmlns:xlink="http://www.w3.org/1999/xlink" x="0px" y="0px"
	 viewBox="0 0 400 65" style="enable-background:new 0 0 400 65;" xml:space="preserve">
<style type="text/css">
	.st0{fill:#CD2027;}
</style>
<path class="st0" d="M300.82,18.98c-1.98,0-3.89,0-5.76,0c0.49,0.82,1.11,1.67,1.54,2.62c2.54,5.68,0.67,13.47-6.33,16.34
	c-3.06,1.26-6.23,1.47-9.45,0.97c-0.83-0.13-1.36-0.05-1.64,0.81c-0.27,0.8-0.07,1.64,0.68,2.08c0.58,0.34,1.22,0.62,1.87,0.81
	c2.86,0.82,5.74,1.56,8.6,2.38c2.88,0.83,5.73,1.73,8.24,3.46c3.12,2.15,3.63,5.53,2.32,8.7c-1.31,3.16-3.88,4.97-6.93,6.07
	c-6.32,2.27-12.72,2.4-19.12,0.32c-1.77-0.58-3.35-1.53-4.58-2.97c-2.3-2.69-2.17-6.95,0.24-9.6c1.16-1.29,2.48-2.36,4.02-3.17
	c0.23-0.12,0.43-0.28,0.5-0.32c-0.7-0.91-1.56-1.71-2.02-2.7c-0.85-1.8-0.24-3.48,0.98-4.91c0.7-0.81,1.54-1.5,2.27-2.2
	c-0.92-0.71-1.93-1.37-2.79-2.19c-3-2.88-3.86-6.5-3.15-10.47c0.9-5.03,4.14-7.98,8.87-9.4c2.74-0.82,5.54-0.84,8.36-0.41
	c2.49,0.38,4.93-0.11,7.34-0.65c1.12-0.25,2.21-0.65,3.31-1.01c1-0.32,1.5-0.05,1.72,1C300.21,15.99,300.51,17.46,300.82,18.98z
	 M290.23,27.46c0.04-2.14-0.21-4.24-1.29-6.13c-1.23-2.15-3.01-3.54-5.63-3.37c-2.62,0.17-4.28,1.71-5.06,4.1
	c-0.46,1.41-0.64,2.94-0.72,4.43c-0.13,2.49,0.32,4.89,1.8,6.99c2.4,3.39,7.3,3.72,9.67-0.2C290.06,31.51,290.27,29.5,290.23,27.46z
	 M284.14,61.83c2.5-0.01,4.83-0.5,6.94-1.76c2.49-1.5,3.47-5.24,0.6-7.2c-0.56-0.38-1.17-0.75-1.82-0.94
	c-3.48-1.04-6.97-2.04-10.46-3.02c-0.24-0.07-0.59,0-0.8,0.14c-1.43,1-2.61,2.23-3.06,3.99c-0.75,2.92,0,5.95,3.04,7.46
	C280.37,61.39,282.25,61.76,284.14,61.83z"/>
<path class="st0" d="M204.74,2.46c-0.26,1.89-0.5,3.7-0.77,5.5c-0.05,0.31-0.2,0.82-0.37,0.84c-0.3,0.05-0.68-0.15-0.98-0.33
	c-1.17-0.75-2.27-1.62-3.49-2.28c-3.34-1.79-6.96-2.36-10.7-2.24c-3.47,0.11-6.77,0.83-9.72,2.8c-2.27,1.51-3.98,3.52-5.22,5.92
	c-2.37,4.58-2.76,9.48-2.25,14.52c0.27,2.68,0.98,5.23,2.24,7.62c1.88,3.58,4.71,6.13,8.41,7.68c3.76,1.57,7.71,1.85,11.71,1.43
	c1.43-0.15,2.85-0.49,4.27-0.74c0.4-0.07,0.63-0.23,0.63-0.72c-0.02-4.67-0.01-9.33-0.02-14c0-0.08-0.02-0.15-0.06-0.35
	c-3.95,0-7.91,0-11.98,0c0.23-1.43,0.44-2.72,0.66-4.06c6.31,0,12.57,0,18.93,0c0,0.32,0,0.6,0,0.89c0,5.73-0.01,11.46,0.01,17.18
	c0,0.57-0.18,0.91-0.63,1.24c-3.89,2.87-8.25,4.51-13.01,5.08c-4.65,0.56-9.27,0.29-13.73-1.26c-6.6-2.29-11.57-6.51-14.26-13.04
	c-2.73-6.63-2.67-13.38,0.16-20c2.84-6.63,8.02-10.64,14.75-12.76c3.91-1.23,7.95-1.53,12.02-1.35c4.36,0.2,8.64,0.92,12.81,2.21
	C204.33,2.31,204.5,2.38,204.74,2.46z"/>
<path class="st0" d="M11.3,47.31c-2.57,0-5.01,0-7.55,0c0-0.38,0-0.71,0-1.05c0-12.65,0-25.3-0.01-37.94c0-0.79-0.03-1.59-0.14-2.37
	c-0.3-2.03-0.97-2.74-2.98-3.1C0.09,2.74-0.02,2.54,0,2.07C0.03,1.41,0.01,0.75,0.01,0c0.37,0,0.66,0,0.94,0
	c5.64,0,11.29-0.01,16.93,0c3.29,0.01,6.51,0.41,9.57,1.74c4.49,1.96,7.16,5.42,7.48,10.44c0.17,2.69-0.18,5.28-1.38,7.72
	c-1.39,2.83-3.53,4.91-6.28,6.36c-3.49,1.85-7.26,2.58-11.18,2.63c-1.57,0.02-3.15,0-4.79,0C11.3,35.13,11.3,41.19,11.3,47.31z
	 M11.33,25.18c2.52-0.16,4.96-0.13,7.33-0.52c3.61-0.59,6.21-2.62,7.33-6.25c0.78-2.54,0.79-5.13,0.15-7.69
	c-0.62-2.48-2.12-4.3-4.47-5.41c-3.31-1.57-6.82-1.19-10.34-1.25C11.33,11.08,11.33,18.01,11.33,25.18z"/>
<path class="st0" d="M80.07,20.31c1.35-1.22,2.43-2.39,3.69-3.31c3.18-2.32,6.76-3.25,10.66-2.57c3.82,0.67,6.31,3.49,6.92,7.72
	c0.13,0.89,0.2,1.79,0.2,2.69c0.02,7.16,0.01,14.32,0.01,21.48c0,0.31,0,0.62,0,0.98c-2.38,0-4.69,0-7.12,0c0-0.31,0-0.61,0-0.92
	c-0.01-6.79,0.01-13.57-0.05-20.36c-0.01-1.14-0.23-2.33-0.6-3.41c-0.74-2.1-2.56-3.01-5.12-2.76c-2.97,0.3-5.55,1.52-7.89,3.33
	c-0.44,0.34-0.6,0.72-0.6,1.28c0.02,7.29,0.01,14.58,0.01,21.87c0,0.31,0,0.62,0,0.97c-2.4,0-4.71,0-7.15,0c0-0.29,0-0.6,0-0.9
	c0-8.06,0-16.12,0-24.18c0-0.27,0.01-0.53,0-0.8c-0.07-1.99-0.96-2.94-2.94-3.12c-0.26-0.02-0.51-0.05-0.73-0.07
	c-0.04-0.09-0.06-0.11-0.06-0.14c-0.18-1.82-0.18-1.82,1.59-2.14c2.9-0.53,5.79-1.06,8.69-1.59c0.94-0.17,1.35,0.33,1.18,1.29
	C80.51,17.16,80.31,18.67,80.07,20.31z"/>
<path class="st0" d="M107.02,18.24c-0.04-0.11-0.06-0.16-0.07-0.21c-0.1-1.76-0.1-1.75,1.62-2.07c2.9-0.53,5.79-1.06,8.69-1.59
	c0.96-0.17,1.36,0.34,1.17,1.37c-0.26,1.48-0.45,2.97-0.66,4.45c0.08,0.03,0.15,0.06,0.23,0.09c0.18-0.21,0.35-0.42,0.54-0.63
	c3.46-3.89,7.7-5.91,12.97-5.3c3.94,0.46,6.7,3.12,7.38,7.05c0.24,1.37,0.38,2.78,0.38,4.18c0.04,7.03,0.02,14.06,0.02,21.08
	c0,0.18-0.02,0.37-0.03,0.62c-2.34,0-4.67,0-7.14,0c0-0.28,0-0.58,0-0.88c-0.01-6.9,0.01-13.79-0.06-20.68
	c-0.01-1.13-0.26-2.34-0.7-3.38c-0.85-2.01-2.71-2.77-5.21-2.46c-2.82,0.34-5.28,1.51-7.54,3.19c-0.53,0.4-0.75,0.84-0.75,1.53
	c0.03,7.24,0.02,14.48,0.02,21.72c0,0.31,0,0.63,0,0.99c-2.38,0-4.69,0-7.12,0c0-0.3,0-0.6,0-0.91c0-7.9,0-15.81,0-23.71
	c0-0.42-0.01-0.85-0.03-1.27c-0.08-2.01-0.96-2.94-2.95-3.11C107.51,18.29,107.26,18.26,107.02,18.24z"/>
<path class="st0" d="M303.61,30.6c-0.02-3.82,1.01-7.52,3.43-10.72c2.54-3.36,6-5.3,10.12-6.06c3.33-0.61,6.62-0.48,9.81,0.69
	c3.55,1.3,6.4,3.55,8.17,6.95c2.97,5.72,2.76,11.53-0.01,17.23c-1.48,3.04-3.88,5.28-6.97,6.74c-4.66,2.19-9.45,2.49-14.27,0.8
	c-4.52-1.59-7.64-4.72-9.28-9.29C303.88,34.94,303.61,32.89,303.61,30.6z M329.52,31.09c-0.08-1.08-0.12-2.17-0.26-3.24
	c-0.45-3.51-1.51-6.74-4.2-9.24c-2.15-2-5.69-2.56-8.3-1.21c-2.27,1.17-3.53,3.17-4.39,5.48c-1.14,3.05-1.19,6.23-0.91,9.41
	c0.24,2.73,0.94,5.36,2.45,7.7c1.46,2.27,3.46,3.75,6.19,4.04c3.49,0.37,6-1.52,7.59-4.48C329.1,36.91,329.48,34.04,329.52,31.09z"
	/>
<path class="st0" d="M384.81,39.75c0.45-1.02,0.88-1.97,1.29-2.94c1.61-3.82,3.24-7.63,4.82-11.46c0.7-1.69,1.29-3.42,1.06-5.31
	c-0.12-1-0.66-1.83-1.59-2.08c-1-0.27-1.13-0.83-1.04-1.67c0.02-0.21,0-0.42,0-0.68c0.24-0.02,0.44-0.06,0.64-0.06
	c2.98,0,5.96,0.01,8.94-0.01c0.45,0,0.77,0.1,0.9,0.56c0.12,0.43,0.34,0.78-0.13,1.26c-1.61,1.64-2.61,3.69-3.52,5.77
	c-2.26,5.15-4.48,10.31-6.71,15.48c-1.97,4.58-3.9,9.19-5.9,13.76c-1.46,3.33-3.24,6.46-5.89,9c-1.57,1.51-3.35,2.72-5.47,3.53
	c-0.66-1.26-1.33-2.53-1.99-3.8c1.11-0.55,2.18-0.99,3.17-1.58c3.22-1.91,5.17-4.87,6.61-8.24c0.18-0.41,0.28-0.88,0.53-1.24
	c0.92-1.34,0.52-2.57-0.07-3.91c-1.71-3.92-3.31-7.88-4.96-11.81c-1.61-3.84-3.22-7.69-4.85-11.52c-0.56-1.31-1.12-2.62-1.79-3.87
	c-0.25-0.46-0.79-0.88-1.29-1.07c-0.57-0.22-0.8-0.47-0.73-1.07c0.04-0.36,0.01-0.74,0.01-1.17c3.92,0,7.81,0,11.77,0
	c0.1,0.27,0.25,0.58,0.31,0.9c0.03,0.19-0.01,0.49-0.14,0.6c-1.17,0.97-1.35,2.31-1.09,3.61c0.31,1.59,0.83,3.16,1.41,4.68
	c1.8,4.67,3.66,9.32,5.51,13.98C384.63,39.48,384.7,39.56,384.81,39.75z"/>
<path class="st0" d="M44.15,31.42c0.16,2.73,0.62,5.33,1.94,7.68c1.98,3.52,5.13,4.95,9.02,4.88c3.03-0.06,5.82-0.85,8.12-3.09
	c0.48,0.53,0.93,1.04,1.41,1.58c-0.94,1.3-2.08,2.35-3.5,3.01c-5.45,2.5-10.95,2.41-16.34-0.08c-4.52-2.09-7.06-5.86-8.02-10.71
	c-0.89-4.49-0.52-8.88,1.61-12.98c2.91-5.59,7.62-8.28,13.85-8.27c3.91,0.01,7.31,1.38,10.04,4.25c1.85,1.96,2.86,4.35,3.3,6.98
	c0.17,1.02,0.18,2.08,0.2,3.13c0.01,0.49-0.36,0.68-0.84,0.75c-5.89,0.8-11.78,1.61-17.67,2.42C46.23,31.11,45.2,31.27,44.15,31.42z
	 M44.06,28.36c1.23-0.16,2.34-0.3,3.46-0.45c3.36-0.46,6.71-0.93,10.07-1.37c0.45-0.06,0.59-0.19,0.52-0.65
	c-0.21-1.33-0.29-2.68-0.57-3.99c-0.38-1.76-1.08-3.39-2.61-4.47c-2.4-1.68-6.08-0.96-7.98,1.5C44.82,21.68,44.3,24.91,44.06,28.36z
	"/>
<path class="st0" d="M243.78,31.5c0.27,3.56,0.96,6.88,3.4,9.58c1.79,1.99,4.12,2.79,6.69,2.9c3.26,0.14,6.27-0.6,8.78-2.85
	c0.07-0.07,0.17-0.11,0.27-0.19c0.45,0.51,0.88,1.01,1.35,1.54c-1.31,1.85-3.08,3.08-5.2,3.76c-5.07,1.62-10.1,1.43-14.89-0.94
	c-4.26-2.1-6.74-5.72-7.73-10.33c-0.79-3.68-0.58-7.34,0.57-10.96c2.06-6.46,8.13-10.78,14.87-10.58c3.82,0.11,7.16,1.35,9.87,4.1
	c2.18,2.21,3.2,4.99,3.6,8.02c0.1,0.75,0.08,1.52,0.06,2.28c-0.01,0.45-0.34,0.65-0.79,0.71c-3.18,0.43-6.36,0.87-9.53,1.31
	c-3.57,0.49-7.14,0.98-10.7,1.48C244.21,31.36,244.04,31.43,243.78,31.5z M243.7,28.39c4.74-0.64,9.39-1.26,14.06-1.89
	c-0.07-2.08-0.29-4.04-0.99-5.92c-0.62-1.66-1.56-3.1-3.33-3.68c-2.49-0.82-4.71-0.24-6.48,1.68
	C244.43,21.3,243.97,24.76,243.7,28.39z"/>
<path class="st0" d="M351.96,14.27c0.94,1.11,0.11,2.16,0.09,3.21c-0.04,1.69-0.2,3.37-0.24,5.09c2.9-5.19,6.52-9.13,13.34-8.12
	c-0.57,2.32-1.12,4.54-1.67,6.8c-1.62-0.47-3.24-0.54-4.84-0.07c-2.97,0.87-4.91,2.93-6.3,5.61c-0.42,0.82-0.55,1.67-0.55,2.59
	c0.03,5.65,0.01,11.29,0.01,16.94c0,0.31,0,0.63,0,1c-2.38,0-4.71,0-7.12,0c0-0.34,0-0.65,0-0.96c0-8.08,0.01-16.17-0.02-24.25
	c0-0.8-0.13-1.64-0.42-2.39c-0.41-1.08-1.48-1.32-2.49-1.36c-0.74-0.03-0.92-0.31-0.83-0.95c0.01-0.05,0.01-0.11,0-0.16
	c-0.11-0.72,0.1-1.03,0.91-1.17c3.27-0.54,6.51-1.18,9.77-1.78C351.73,14.27,351.87,14.27,351.96,14.27z"/>
<path class="st0" d="M222.3,47.31c-2.42,0-4.73,0-7.12,0c0-0.34,0-0.65,0-0.96c0-7.9,0-15.8,0-23.7c0-0.42-0.01-0.85-0.03-1.27
	c-0.08-1.92-1-2.89-2.91-3.07c-0.26-0.02-0.51-0.03-0.73-0.05c-0.05-0.1-0.07-0.12-0.07-0.14c-0.19-1.84-0.19-1.84,1.64-2.17
	c2.87-0.52,5.74-1.05,8.61-1.57c0.94-0.17,1.3,0.3,1.19,1.26c-0.24,2.2-0.39,4.41-0.58,6.62c-0.01,0.07,0.03,0.14,0.06,0.3
	c2.86-5.29,6.5-9.17,13.26-8.13c-0.57,2.31-1.11,4.5-1.64,6.62c-1.13-0.05-2.2-0.18-3.26-0.14c-2.57,0.11-4.59,1.37-6.22,3.3
	c-0.41,0.48-0.79,0.99-1.12,1.52c-0.69,1.1-1.13,2.24-1.11,3.63c0.07,5.67,0.03,11.34,0.03,17.02
	C222.3,46.67,222.3,46.96,222.3,47.31z"/>
</svg>
